<?xml version="1.0" standalone="no"?>
<!DOCTYPE svg PUBLIC "-//W3C//DTD SVG 20010904//EN"
 "http://www.w3.org/TR/2001/REC-SVG-20010904/DTD/svg10.dtd">
<svg version="1.0" xmlns="http://www.w3.org/2000/svg"
 width="128.000000pt" height="128.000000pt" viewBox="0 0 128.000000 128.000000"
 preserveAspectRatio="xMidYMid meet">

<g transform="translate(0.000000,128.000000) scale(0.100000,-0.100000)"
fill="#000000" stroke="none">
<path d="M506 1205 c-260 -66 -446 -300 -446 -562 0 -99 15 -164 60 -258 50
-102 101 -161 196 -224 107 -72 190 -96 329 -96 171 0 290 50 410 170 117 117
169 241 169 405 0 255 -164 478 -411 556 -71 22 -235 27 -307 9z m297 -35 c75
-28 169 -114 207 -191 61 -119 62 -237 5 -377 -16 -38 -25 -83 -26 -119 -2
-53 -2 -55 -10 -23 -7 32 -8 30 -5 -13 3 -38 0 -50 -15 -57 -15 -9 -17 -7 -12
12 3 13 8 43 13 68 4 25 10 54 14 65 5 13 2 11 -8 -5 -8 -14 -15 -39 -16 -56
0 -18 -9 -42 -19 -55 -18 -22 -22 -23 -73 -12 -63 13 -130 4 -158 -22 -37 -34
-24 -38 93 -33 61 3 99 4 83 1 -20 -3 -25 -7 -16 -13 9 -5 11 -19 6 -43 -5
-29 -12 -37 -35 -42 -15 -3 -32 -5 -37 -3 -5 1 -20 -2 -33 -6 -16 -6 -20 -11
-11 -16 16 -10 24 -76 10 -85 -7 -5 -9 2 -4 19 7 30 -2 33 -28 9 -18 -16 -57
-19 -138 -11 -30 3 -37 9 -46 38 -14 43 -50 54 -57 18 -3 -16 -4 -15 -2 5 1
21 -6 33 -27 48 -33 24 -35 38 -8 62 14 12 38 17 80 17 53 0 60 -2 60 -19 0
-11 4 -22 8 -25 5 -3 7 -18 4 -35 -2 -16 1 -37 6 -47 19 -34 26 30 8 67 -9 18
-16 42 -16 55 0 32 -87 74 -155 74 -44 0 -55 4 -79 29 -23 24 -27 35 -21 60
l7 32 32 -29 c54 -47 101 -71 171 -89 48 -12 69 -22 73 -35 4 -17 5 -17 21 1
9 10 47 26 86 35 183 43 306 210 293 396 -10 132 -96 258 -217 318 -50 24 -67
27 -161 27 -93 0 -111 -3 -162 -27 -119 -56 -209 -176 -223 -298 -3 -30 -8
-73 -11 -95 -3 -30 -2 -36 6 -25 9 11 10 6 5 -20 -5 -27 -4 -32 5 -20 9 12 10
11 5 -8 -4 -14 1 -35 15 -57 19 -31 21 -44 15 -103 -6 -59 -4 -71 14 -94 28
-35 8 -48 -25 -17 -17 16 -24 32 -23 58 l1 36 7 -37 c8 -39 27 -68 44 -68 6 0
0 11 -13 25 -20 21 -22 31 -17 73 3 27 3 60 -1 73 l-6 24 -8 -25 c-7 -22 -7
-22 -4 5 3 17 -5 57 -16 90 -30 90 -23 228 17 310 50 104 150 188 265 221 63
19 192 11 263 -16z m-3 -96 c-14 -36 -13 -37 20 -32 17 3 30 4 30 3 0 -1 -25
-19 -55 -41 -30 -21 -55 -42 -55 -45 0 -4 23 -9 51 -13 l51 -7 -74 -51 c-103
-72 -103 -71 -26 -65 37 2 66 1 63 -3 -3 -5 -39 -28 -80 -52 -41 -24 -75 -46
-75 -50 0 -5 24 -8 53 -9 l52 0 -85 -44 c-80 -41 -83 -44 -60 -53 24 -9 23
-10 -29 -33 -30 -12 -49 -25 -43 -27 23 -7 12 -19 -29 -31 -23 -7 -42 -11 -44
-9 -2 2 17 37 41 78 l43 75 -37 3 -37 4 60 54 60 55 -55 -6 c-64 -8 -64 -9 43
69 42 31 77 59 77 62 0 3 -19 3 -42 0 -49 -7 -50 -9 55 59 l62 39 -37 10 c-21
5 -38 12 -38 15 0 4 29 17 65 29 36 13 67 28 71 33 11 18 13 8 4 -17z m-256
-15 c14 -11 26 -25 26 -30 0 -5 -17 -24 -37 -43 -34 -31 -40 -33 -54 -20 -9 8
-24 12 -33 8 -23 -9 -22 57 2 78 36 32 61 34 96 7z m-214 -559 c-8 -15 -8 -26
1 -42 11 -22 10 -22 -7 -6 -15 15 -16 21 -6 43 7 14 13 38 13 53 l2 27 4 -27
c2 -15 -1 -36 -7 -48z m32 -185 c3 -13 1 -22 -3 -19 -9 5 -13 44 -5 44 2 0 6
-11 8 -25z m552 -11 c-6 -25 -8 -26 -15 -9 -7 19 -8 19 -8 -2 -1 -12 -6 -25
-11 -28 -7 -4 -8 3 -4 22 9 37 14 44 25 38 5 -4 9 -1 9 6 0 7 2 10 5 7 4 -3 3
-18 -1 -34z m-515 -19 c0 -5 -4 -3 -9 5 -5 8 -9 22 -9 30 0 16 17 -16 18 -35z
m21 23 c0 -18 -2 -20 -9 -8 -6 8 -7 18 -5 22 9 14 14 9 14 -14z m374 -83 c-4
-8 -8 -15 -10 -15 -2 0 -4 7 -4 15 0 8 4 15 10 15 5 0 7 -7 4 -15z m-274 -4
c0 -5 3 -17 7 -27 4 -11 3 -15 -4 -11 -7 5 -9 0 -6 -12 3 -10 0 -22 -7 -26 -8
-5 -10 7 -8 39 2 25 6 46 11 46 4 0 7 -4 7 -9z m29 -88 c0 -31 -2 -34 -9 -18
-12 28 -12 55 0 55 6 0 10 -17 9 -37z m187 -21 c-12 -12 -18 8 -10 35 l8 28 4
-28 c2 -16 1 -31 -2 -35z m-146 12 c0 -14 -5 -24 -11 -22 -6 2 -10 7 -10 11 1
4 1 14 1 22 0 8 5 15 10 15 6 0 10 -12 10 -26z m40 -10 c0 -26 -17 -33 -26 -9
-8 20 3 48 16 40 5 -3 10 -17 10 -31z m50 0 c0 -7 -5 -16 -11 -20 -17 -10 -32
12 -24 36 5 17 10 19 21 9 8 -6 14 -17 14 -25z m30 6 c0 -10 -4 -22 -10 -25
-6 -4 -10 7 -10 25 0 18 4 29 10 25 6 -3 10 -15 10 -25z"/>
<path d="M647 294 c-11 -11 -8 -84 3 -84 6 0 13 6 15 13 6 18 -9 80 -18 71z"/>
</g>
</svg>
